<?xml version="1.0" encoding="utf-8"?>
<!-- Generator: Adobe Illustrator 16.0.0, SVG Export Plug-In . SVG Version: 6.00 Build 0)  -->
<!DOCTYPE svg PUBLIC "-//W3C//DTD SVG 1.1//EN" "http://www.w3.org/Graphics/SVG/1.1/DTD/svg11.dtd">
<svg version="1.1" id="Layer_9" xmlns="http://www.w3.org/2000/svg" xmlns:xlink="http://www.w3.org/1999/xlink" x="0px" y="0px"
	 width="40px" height="40px" viewBox="0 0 512 512" enable-background="new 0 0 512 512" xml:space="preserve">
<path fill-rule="evenodd" clip-rule="evenodd" fill="#3B5998" d="M375.992,128h-39.984c-8.844,0-16,7.156-16,16v32.004
	c0,8.828,7.156,15.984,16,15.984h45.961c22.656,0,37.406,19.339,33.062,42.515l-8.984,47.918
	c-3.93,21.008-23.828,37.586-44.547,37.586h-25.492c-8.844,0-16,7.156-16,15.984v136.015c0,22.086-17.922,39.984-40.008,39.984
	c-0.305,0.023-26.422,0-40,0c-8.828,0-16.008-7.156-16.008-16c0-8.828,7.18-16,16.008-16h32c8.844,0,16-7.156,16-15.984V328.007
	c0-22.102,17.906-40.008,40.008-40.008h28.914c8.328,0,16.852-6.648,19.07-15.031l8.484-31.953
	c2.477-9.309-2.812-17.023-11.852-17.023h-44.617c-22.102,0-40.008-17.902-40.008-40.003V136c0-22.102,17.906-40.003,40.008-40.003
	h39.984c8.844,0,16-7.16,16-16.004V47.988c0-8.824-7.156-15.984-16-15.984h-63.984c-44.188,0-80.016,35.809-80.016,79.992v71.992
	c0,22.101-17.898,40.003-39.984,40.003h-23.625c-9.039,0-16.383,7.715-16.383,17.023v31.953c0,8.383,6.75,15.031,15.07,15.031
	h24.938c22.086,0,39.984,17.906,39.984,40.008v39.983c0,8.844-7.156,16.008-15.984,16.008c-8.844,0-16-7.164-16-16.008v-31.999
	c0-8.828-7.172-15.984-16-15.984h-26.5c-20.719,0-37.508-16.578-37.508-37.586v-47.918c0-23.176,18.367-42.515,41.023-42.515h22.984
	c8.828,0,16-7.156,16-15.984v-72.008C192.008,46.555,238.562,0,296,0h79.992C398.094,0,416,17.902,416,39.988v48.004
	C416,110.093,398.094,128,375.992,128L375.992,128z M208.008,415.998c8.828,0,15.984,7.156,15.984,16
	c0,8.828-7.156,16.008-15.984,16.008c-8.844,0-16-7.18-16-16.008C192.008,423.154,199.164,415.998,208.008,415.998L208.008,415.998z
	"/>
</svg>
